<svg width="150" height="150" viewBox="0 0 150 150" fill="none" xmlns="http://www.w3.org/2000/svg">
<rect width="150" height="150" fill="black"/>
<g clip-path="url(#clip0_2007_9)">
<path d="M20 72.5288L27.6551 49.0897C45.295 55.2524 58.1089 60.5894 66.0968 65.101C63.9889 45.1835 62.8794 31.4831 62.7685 24H86.8986C86.5657 34.8945 85.2899 48.5398 83.0711 64.9359C94.4982 59.2139 107.589 53.9318 122.345 49.0897L130 72.5288C115.91 77.1508 102.098 80.232 88.5628 81.7724C95.3302 87.6049 104.871 98.0039 117.186 112.97L97.2163 127C90.7816 118.307 83.182 106.477 74.4176 91.5112C66.2077 107.027 58.9964 118.857 52.7837 127L33.1467 112.97C46.0161 97.2336 55.2244 86.8346 60.7716 81.7724C46.4599 79.0216 32.8694 75.9404 20 72.5288Z" fill="white"/>
</g>
<defs>
<clipPath id="clip0_2007_9">
<rect width="110" height="103" fill="white" transform="translate(20 24)"/>
</clipPath>
</defs>
</svg>
