<svg width="300" height="281" viewBox="0 0 300 281" fill="none" xmlns="http://www.w3.org/2000/svg">
<g clip-path="url(#clip0_2012_10)">
<path d="M0 132.394L20.8775 68.4487C68.9863 85.2613 103.933 99.8216 125.719 112.13C119.97 57.7917 116.944 20.4152 116.641 0H182.451C181.543 29.7218 178.063 66.9483 172.012 111.679C203.177 96.0689 238.88 81.6587 279.123 68.4487L300 132.394C261.573 145.004 223.903 153.41 186.989 157.612C205.446 173.524 231.467 201.894 265.053 242.723L210.59 281C193.041 257.284 172.314 225.011 148.411 184.181C126.021 226.512 106.354 258.785 89.41 281L35.8548 242.723C70.953 199.793 96.0664 171.423 111.195 157.612C72.1633 150.107 35.0983 141.701 0 132.394Z" fill="black"/>
</g>
<defs>
<clipPath id="clip0_2012_10">
<rect width="300" height="281" fill="white"/>
</clipPath>
</defs>
</svg>
